{"accessors":[{"bufferView":2,"componentType":5126,"count":592,"max":[13.927929878234863,13.892550468444824,7.208002090454102],"min":[-13.868430137634277,-13.88306999206543,-13.88012981414795],"type":"VEC3","byteOffset":0},{"bufferView":2,"byteOffset":7104,"componentType":5126,"count":592,"max":[0.9989652037620544,0.9990018010139465,0.9972373843193054],"min":[-0.9940516352653503,-0.9990112781524658,-0.9989686012268066],"type":"VEC3"},{"bufferView":3,"componentType":5126,"count":592,"max":[1,0.9999940991401672,0.9999998211860657,1],"min":[-1,-0.9993450045585632,-0.9999997615814209,-1],"type":"VEC4","byteOffset":0},{"bufferView":1,"componentType":5126,"count":592,"max":[0.9950000047683716,0.9581609964370728],"min":[0.004999999888241291,0.004999995231628418],"type":"VEC2","byteOffset":0},{"bufferView":0,"componentType":5125,"count":2760,"max":[591],"min":[0],"type":"SCALAR","byteOffset":0}],"asset":{"extras":{"author":"polyplant3d (https://sketchfab.com/polyplant3d)","license":"CC-BY-4.0 (http://creativecommons.org/licenses/by/4.0/)","source":"https://sketchfab.com/models/cbdf758f21924c168c1c3da1afed9754","title":"orange fruit"},"generator":"Sketchfab-3.18.6","version":"2.0"},"bufferViews":[{"buffer":0,"byteLength":11040,"byteOffset":0,"name":"floatBufferViews","target":34963},{"buffer":0,"byteLength":4736,"byteOffset":11040,"byteStride":8,"name":"floatBufferViews","target":34962},{"buffer":0,"byteLength":14208,"byteOffset":15776,"byteStride":12,"name":"floatBufferViews","target":34962},{"buffer":0,"byteLength":9472,"byteOffset":29984,"byteStride":16,"name":"floatBufferViews","target":34962},{"buffer":0,"byteOffset":39456,"byteLength":687225}],"buffers":[{"byteLength":726684,"uri":"data:application/octet-stream;base64,"}],"images":[{"bufferView":4,"mimeType":"image/jpeg"}],"materials":[{"doubleSided":true,"emissiveFactor":[0,0,0],"name":"orange_halb3DC_null_color","pbrMetallicRoughness":{"baseColorFactor":[1,1,1,1],"baseColorTexture":{"index":0,"texCoord":0},"metallicFactor":0,"roughnessFactor":0.6},"alphaMode":"OPAQUE"}],"meshes":[{"primitives":[{"attributes":{"NORMAL":1,"POSITION":0,"TANGENT":2,"TEXCOORD_0":3},"indices":4,"material":0,"mode":4}]}],"nodes":[{"children":[1],"name":"RootNode (gltf orientation matrix)","rotation":[-0.7071067811865475,0,0,0.7071067811865476],"translation":[0,0,0],"scale":[1,1,1]},{"children":[2],"name":"RootNode (model correction matrix)"},{"children":[3],"name":"sdsdfs.unity_1.obj.cleaner.gles"},{"mesh":0,"name":""}],"samplers":[{"magFilter":9729,"minFilter":9987,"wrapS":10497,"wrapT":10497}],"scene":0,"scenes":[{"name":"OSG_Scene","nodes":[0]}],"textures":[{"sampler":0,"source":0}]}
